<svg xmlns="http://www.w3.org/2000/svg" width="1440" height="900" viewBox="0 0 1440 900">
  <rect width="1440" height="900" fill="#f4f6f8"/>
  <rect x="0" y="0" width="1440" height="72" fill="#15202b"/>
  <text x="32" y="44" fill="#ffffff" font-family="Arial, Helvetica, sans-serif" font-size="26" font-weight="700">Squid Profiles</text>
  <rect x="32" y="104" width="1376" height="760" rx="12" fill="#ffffff" stroke="#d8dde3"/>
  <text x="64" y="148" fill="#15202b" font-family="Arial, Helvetica, sans-serif" font-size="20" font-weight="700">Profile editor</text>
  <rect x="64" y="176" width="420" height="48" fill="#f0f3f6"/>
  <text x="84" y="206" fill="#15202b" font-family="Arial, Helvetica, sans-serif" font-size="13" font-weight="700">Name</text>
  <rect x="520" y="176" width="420" height="48" fill="#f0f3f6"/>
  <text x="540" y="206" fill="#15202b" font-family="Arial, Helvetica, sans-serif" font-size="13" font-weight="700">Description</text>
  <rect x="64" y="252" width="320" height="36" rx="6" fill="#e7eef7"/>
  <text x="82" y="275" fill="#224466" font-family="Arial, Helvetica, sans-serif" font-size="13" font-weight="700">Mode: Lists</text>
  <rect x="400" y="252" width="320" height="36" rx="6" fill="#e7eef7"/>
  <text x="418" y="275" fill="#224466" font-family="Arial, Helvetica, sans-serif" font-size="13" font-weight="700">Domain syntax help</text>
  <rect x="64" y="320" width="620" height="430" rx="10" fill="#fbfcfd" stroke="#d8dde3"/>
  <text x="84" y="354" fill="#15202b" font-family="Arial, Helvetica, sans-serif" font-size="15" font-weight="700">Allowed domains</text>
  <rect x="84" y="376" width="540" height="34" rx="5" fill="#ffffff" stroke="#cfd6dd"/>
  <rect x="84" y="420" width="540" height="34" rx="5" fill="#ffffff" stroke="#cfd6dd"/>
  <text x="98" y="398" fill="#5b6570" font-family="Arial, Helvetica, sans-serif" font-size="13">.example.com</text>
  <text x="98" y="442" fill="#5b6570" font-family="Arial, Helvetica, sans-serif" font-size="13">docs.example.net</text>
  <text x="84" y="490" fill="#15202b" font-family="Arial, Helvetica, sans-serif" font-size="15" font-weight="700">Denied domains</text>
  <rect x="84" y="512" width="540" height="34" rx="5" fill="#ffffff" stroke="#cfd6dd"/>
  <text x="98" y="534" fill="#5b6570" font-family="Arial, Helvetica, sans-serif" font-size="13">blocked.example.net</text>
  <rect x="720" y="320" width="620" height="430" rx="10" fill="#fbfcfd" stroke="#d8dde3"/>
  <text x="740" y="354" fill="#15202b" font-family="Arial, Helvetica, sans-serif" font-size="15" font-weight="700">Actions</text>
  <rect x="740" y="376" width="180" height="36" rx="6" fill="#e7eef7"/>
  <text x="770" y="399" fill="#224466" font-family="Arial, Helvetica, sans-serif" font-size="13" font-weight="700">Validate this profile</text>
  <rect x="938" y="376" width="140" height="36" rx="6" fill="#2f6fed"/>
  <text x="970" y="399" fill="#ffffff" font-family="Arial, Helvetica, sans-serif" font-size="13" font-weight="700">Apply</text>
  <rect x="740" y="442" width="560" height="120" rx="8" fill="#f0f3f6"/>
  <text x="760" y="476" fill="#15202b" font-family="Arial, Helvetica, sans-serif" font-size="14" font-weight="700">Full text rules</text>
  <text x="760" y="504" fill="#5b6570" font-family="Arial, Helvetica, sans-serif" font-size="13">allow .example.com</text>
  <text x="760" y="528" fill="#5b6570" font-family="Arial, Helvetica, sans-serif" font-size="13">deny bad.example.com</text>
</svg>
